<svg width="100" height="72" viewBox="0 0 100 72" fill="none" xmlns="http://www.w3.org/2000/svg">
<path d="M11.916 21.3542L9.576 21.2102V26.1782C9.576 26.8262 9.672 27.2942 9.864 27.5822C10.08 27.8702 10.464 28.0142 11.016 28.0142C11.592 28.0142 12.024 28.0382 12.312 28.0862C12.624 28.1102 12.948 28.2182 13.284 28.4102C13.836 28.7222 14.112 29.5262 14.112 30.8222C14.112 32.3342 13.776 33.2582 13.104 33.5942C12.744 33.7622 12.42 33.8702 12.132 33.9182C11.868 33.9422 11.472 33.9542 10.944 33.9542C8.448 33.9542 6.552 33.3902 5.256 32.2622C3.96 31.1342 3.312 29.2262 3.312 26.5382V21.2102C2.856 21.2822 2.364 21.3182 1.836 21.3182C1.308 21.3182 0.864 21.1142 0.504 20.7062C0.168 20.2982 0 19.6022 0 18.6182C0 17.6342 0.06 16.9262 0.18 16.4942C0.3 16.0382 0.468 15.7142 0.684 15.5222C1.068 15.2102 1.548 15.0542 2.124 15.0542L3.312 15.1982V11.4902C3.312 10.9382 3.324 10.5302 3.348 10.2662C3.396 10.0022 3.516 9.7142 3.708 9.4022C4.02 8.8022 4.944 8.5022 6.48 8.5022C8.112 8.5022 9.084 8.9462 9.396 9.8342C9.516 10.2182 9.576 10.8302 9.576 11.6702V15.1982C10.632 15.1022 11.424 15.0542 11.952 15.0542C12.504 15.0542 12.912 15.0782 13.176 15.1262C13.464 15.1502 13.788 15.2582 14.148 15.4502C14.772 15.7622 15.084 16.6862 15.084 18.2222C15.084 19.7342 14.76 20.6582 14.112 20.9942C13.752 21.1622 13.428 21.2702 13.14 21.3182C12.876 21.3422 12.468 21.3542 11.916 21.3542Z" fill="white"/>
<path d="M29.3839 16.9982C29.5279 15.6542 30.4759 14.9822 32.2279 14.9822C33.1639 14.9822 33.8599 15.0542 34.3159 15.1982C34.7719 15.3422 35.0839 15.5942 35.2519 15.9542C35.4439 16.3142 35.5519 16.6382 35.5759 16.9262C35.6239 17.1902 35.6479 17.5982 35.6479 18.1502V30.7502C35.6479 31.3022 35.6239 31.7222 35.5759 32.0102C35.5519 32.2742 35.4559 32.5862 35.2879 32.9462C34.9519 33.5702 34.1239 33.8822 32.8039 33.8822C31.5079 33.8822 30.6319 33.7262 30.1759 33.4142C29.7439 33.0782 29.4919 32.5982 29.4199 31.9742C28.5319 33.2462 27.0439 33.8822 24.9559 33.8822C22.8919 33.8822 20.9719 32.9342 19.1959 31.0382C17.4199 29.1422 16.5319 26.9462 16.5319 24.4502C16.5319 21.9302 17.4199 19.7342 19.1959 17.8622C20.9959 15.9662 22.9639 15.0182 25.0999 15.0182C25.9159 15.0182 26.6599 15.1622 27.3319 15.4502C28.0039 15.7382 28.4719 16.0142 28.7359 16.2782C28.9999 16.5182 29.2159 16.7582 29.3839 16.9982ZM22.8319 24.4862C22.8319 25.2782 23.1439 25.9982 23.7679 26.6462C24.3919 27.2702 25.1479 27.5822 26.0359 27.5822C26.9239 27.5822 27.6559 27.2582 28.2319 26.6102C28.8319 25.9622 29.1319 25.2542 29.1319 24.4862C29.1319 23.6942 28.8439 22.9622 28.2679 22.2902C27.7159 21.6182 26.9599 21.2822 25.9999 21.2822C25.0639 21.2822 24.2959 21.6182 23.6959 22.2902C23.1199 22.9622 22.8319 23.6942 22.8319 24.4862Z" fill="white"/>
<path d="M48.9212 15.0182C51.0572 15.0182 53.0132 15.9662 54.7892 17.8622C56.5892 19.7582 57.4892 21.9662 57.4892 24.4862C57.4892 26.9822 56.6012 29.1782 54.8252 31.0742C53.0492 32.9462 51.1412 33.8822 49.1012 33.8822C47.0612 33.8822 45.6092 33.3062 44.7452 32.1542C44.5532 33.3302 43.5212 33.9182 41.6492 33.9182C40.1372 33.9182 39.2132 33.5942 38.8772 32.9462C38.7092 32.5862 38.6012 32.2742 38.5532 32.0102C38.5292 31.7222 38.5172 31.3022 38.5172 30.7502V9.2582C38.5172 8.7062 38.5292 8.2982 38.5532 8.0342C38.6012 7.7462 38.7092 7.4342 38.8772 7.0982C39.2132 6.4502 40.1492 6.1262 41.6852 6.1262C43.1972 6.1262 44.1092 6.4502 44.4212 7.0982C44.6132 7.4582 44.7212 7.7822 44.7452 8.0702C44.7932 8.3342 44.8172 8.7422 44.8172 9.2942V16.7822C45.7772 15.6062 47.1452 15.0182 48.9212 15.0182ZM45.7532 26.6462C46.3532 27.2942 47.0972 27.6182 47.9852 27.6182C48.8732 27.6182 49.6292 27.2942 50.2532 26.6462C50.8772 25.9982 51.1892 25.2782 51.1892 24.4862C51.1892 23.6942 50.9012 22.9742 50.3252 22.3262C49.7492 21.6542 48.9812 21.3182 48.0212 21.3182C47.0612 21.3182 46.2932 21.6542 45.7172 22.3262C45.1652 22.9982 44.8892 23.7302 44.8892 24.5222C44.8892 25.2902 45.1772 25.9982 45.7532 26.6462Z" fill="white"/>
<path d="M2.95156 61.674C2.49556 61.386 2.26756 60.93 2.26756 60.306C2.26756 59.682 2.72356 58.734 3.63556 57.462C3.89956 57.054 4.31956 56.85 4.89556 56.85C5.49556 56.85 6.29956 57.15 7.30756 57.75C8.31556 58.326 9.22756 58.614 10.0436 58.614C11.5076 58.614 12.2396 58.326 12.2396 57.75C12.2396 57.294 11.4356 56.958 9.82756 56.742C8.31556 56.526 6.81556 55.962 5.32756 55.05C4.63156 54.618 4.05556 53.946 3.59956 53.034C3.14356 52.098 2.91556 50.994 2.91556 49.722C2.91556 45.93 5.51956 44.034 10.7276 44.034C12.4316 44.034 14.1836 44.442 15.9836 45.258C16.8236 45.642 17.2436 46.122 17.2436 46.698C17.2436 47.274 16.9796 47.982 16.4516 48.822C15.9236 49.662 15.3836 50.082 14.8316 50.082C14.5436 50.082 14.0036 49.902 13.2116 49.542C12.4436 49.182 11.6036 49.002 10.6916 49.002C9.27556 49.002 8.56756 49.266 8.56756 49.794C8.56756 50.514 9.38356 50.982 11.0156 51.198C12.5996 51.366 14.1356 51.822 15.6236 52.566C16.3196 52.902 16.8956 53.49 17.3516 54.33C17.8316 55.146 18.0716 56.178 18.0716 57.426C18.0716 58.674 17.8316 59.742 17.3516 60.63C16.8956 61.494 16.2476 62.142 15.4076 62.574C13.8716 63.318 11.9396 63.69 9.61156 63.69C7.30756 63.69 5.08756 63.018 2.95156 61.674Z" fill="white"/>
<path d="M20.4208 68.514V47.49C20.4208 46.938 20.4328 46.53 20.4568 46.266C20.5048 46.002 20.6128 45.702 20.7808 45.366C21.1168 44.718 21.9208 44.394 23.1928 44.394C24.4648 44.394 25.3168 44.562 25.7488 44.898C26.2048 45.21 26.4688 45.678 26.5408 46.302C27.4528 45.054 28.8808 44.43 30.8248 44.43C32.7928 44.43 34.6528 45.354 36.4048 47.202C38.1568 49.05 39.0328 51.198 39.0328 53.646C39.0328 56.094 38.1568 58.242 36.4048 60.09C34.6768 61.938 32.8288 62.862 30.8608 62.862C28.8928 62.862 27.4648 62.31 26.5768 61.206V68.478C26.5768 69.03 26.5528 69.438 26.5048 69.702C26.4808 69.966 26.3728 70.266 26.1808 70.602C26.0128 70.962 25.7128 71.214 25.2808 71.358C24.8488 71.502 24.2608 71.574 23.5168 71.574C22.7728 71.574 22.1728 71.502 21.7168 71.358C21.2848 71.214 20.9728 70.974 20.7808 70.638C20.6128 70.302 20.5048 70.002 20.4568 69.738C20.4328 69.474 20.4208 69.066 20.4208 68.514ZM27.5488 51.558C26.9968 52.206 26.7208 52.914 26.7208 53.682C26.7208 54.45 26.9968 55.158 27.5488 55.806C28.1248 56.43 28.8448 56.742 29.7088 56.742C30.5968 56.742 31.3408 56.43 31.9408 55.806C32.5648 55.182 32.8768 54.474 32.8768 53.682C32.8768 52.89 32.5888 52.182 32.0128 51.558C31.4368 50.91 30.6808 50.586 29.7448 50.586C28.8328 50.586 28.1008 50.91 27.5488 51.558Z" fill="white"/>
<path d="M53.686 46.41C53.83 45.066 54.778 44.394 56.53 44.394C57.466 44.394 58.162 44.466 58.618 44.61C59.074 44.754 59.386 45.006 59.554 45.366C59.746 45.726 59.854 46.05 59.878 46.338C59.926 46.602 59.95 47.01 59.95 47.562V60.162C59.95 60.714 59.926 61.134 59.878 61.422C59.854 61.686 59.758 61.998 59.59 62.358C59.254 62.982 58.426 63.294 57.106 63.294C55.81 63.294 54.934 63.138 54.478 62.826C54.046 62.49 53.794 62.01 53.722 61.386C52.834 62.658 51.346 63.294 49.258 63.294C47.194 63.294 45.274 62.346 43.498 60.45C41.722 58.554 40.834 56.358 40.834 53.862C40.834 51.342 41.722 49.146 43.498 47.274C45.298 45.378 47.266 44.43 49.402 44.43C50.218 44.43 50.962 44.574 51.634 44.862C52.306 45.15 52.774 45.426 53.038 45.69C53.302 45.93 53.518 46.17 53.686 46.41ZM47.134 53.898C47.134 54.69 47.446 55.41 48.07 56.058C48.694 56.682 49.45 56.994 50.338 56.994C51.226 56.994 51.958 56.67 52.534 56.022C53.134 55.374 53.434 54.666 53.434 53.898C53.434 53.106 53.146 52.374 52.57 51.702C52.018 51.03 51.262 50.694 50.302 50.694C49.366 50.694 48.598 51.03 47.998 51.702C47.422 52.374 47.134 53.106 47.134 53.898Z" fill="white"/>
<path d="M68.7593 53.898C68.7593 54.906 69.0953 55.698 69.7673 56.274C70.4393 56.826 71.1473 57.102 71.8913 57.102C72.6593 57.102 73.3673 56.886 74.0153 56.454C74.6873 55.998 75.2273 55.77 75.6353 55.77C76.3553 55.77 77.2313 56.406 78.2633 57.678C78.8153 58.374 79.0913 58.998 79.0913 59.55C79.0913 60.462 78.4313 61.314 77.1113 62.106C75.7433 63.066 74.0633 63.546 72.0713 63.546C69.8393 63.546 67.6913 62.742 65.6273 61.134C64.6433 60.366 63.8393 59.346 63.2153 58.074C62.5913 56.778 62.2793 55.362 62.2793 53.826C62.2793 52.266 62.5913 50.862 63.2153 49.614C63.8393 48.342 64.6433 47.322 65.6273 46.554C67.6193 44.97 69.7433 44.178 71.9993 44.178C72.9113 44.178 73.7993 44.31 74.6633 44.574C75.5273 44.814 76.1633 45.054 76.5713 45.294L77.1473 45.654C77.5793 45.942 77.9153 46.17 78.1553 46.338C78.7793 46.818 79.0913 47.37 79.0913 47.994C79.0913 48.594 78.8393 49.278 78.3353 50.046C77.4713 51.366 76.6433 52.026 75.8513 52.026C75.3953 52.026 74.7473 51.762 73.9073 51.234C73.4753 50.826 72.8513 50.622 72.0353 50.622C71.2433 50.622 70.4993 50.91 69.8033 51.486C69.1073 52.062 68.7593 52.866 68.7593 53.898Z" fill="white"/>
<path d="M99.1776 51.63C99.1776 53.094 98.8056 54.186 98.0616 54.906C97.3416 55.602 96.5376 55.95 95.6496 55.95H87.1176C87.1176 56.622 87.5136 57.186 88.3056 57.642C89.0976 58.098 89.8896 58.326 90.6816 58.326C92.0736 58.326 93.1656 58.182 93.9576 57.894L94.3536 57.75C94.9296 57.486 95.4096 57.354 95.7936 57.354C96.5616 57.354 97.2216 57.894 97.7736 58.974C98.0856 59.622 98.2416 60.174 98.2416 60.63C98.2416 62.766 95.6856 63.834 90.5736 63.834C88.7976 63.834 87.2136 63.534 85.8216 62.934C84.4536 62.31 83.3856 61.494 82.6176 60.486C81.1056 58.542 80.3496 56.37 80.3496 53.97C80.3496 50.946 81.3216 48.534 83.2656 46.734C85.2336 44.91 87.6816 43.998 90.6096 43.998C93.9456 43.998 96.3936 45.174 97.9536 47.526C98.7696 48.774 99.1776 50.142 99.1776 51.63ZM91.5816 52.674C92.4936 52.674 92.9496 52.29 92.9496 51.522C92.9496 50.97 92.7336 50.526 92.3016 50.19C91.8936 49.854 91.2936 49.686 90.5016 49.686C89.7336 49.686 88.9656 50.01 88.1976 50.658C87.4296 51.282 87.0456 51.954 87.0456 52.674H91.5816Z" fill="white"/>
<path d="M91.76 38.5C88.86 38.5 85.9933 37.75 83.16 36.25C79.9933 37.9833 76.7933 38.85 73.56 38.85C64.9933 38.85 60.71 35.2833 60.71 28.15C60.71 24.45 62.6267 21.0167 66.46 17.85C65.1267 14.8833 64.46 12.2 64.46 9.8C64.46 6.46667 65.46 4 67.46 2.4C69.46 0.800001 72.1433 0 75.51 0C78.8767 0 81.4267 0.800001 83.16 2.4C84.8933 4 85.76 6.18333 85.76 8.95C85.76 11.2833 84.81 13.3833 82.91 15.25C81.51 16.65 79.5433 18.2 77.01 19.9C78.9767 22.5 81.11 24.7 83.41 26.5C84.3433 25.0667 84.9933 23.6 85.36 22.1C85.6933 20.6333 87.1933 19.9 89.86 19.9C90.9933 19.9 91.8433 20.05 92.41 20.35C93.01 20.65 93.3433 20.9667 93.41 21.3C93.51 21.6 93.5433 22 93.51 22.5C93.3767 25.0333 92.3433 27.55 90.41 30.05C90.91 30.15 91.3767 30.2 91.81 30.2C94.41 30.2 95.71 31.5167 95.71 34.15C95.71 35.9833 95.41 37.1667 94.81 37.7C94.21 38.2333 93.1933 38.5 91.76 38.5ZM72.36 9.2C72.36 10.4 72.6433 11.75 73.21 13.25C74.7767 12.25 75.9433 11.4167 76.71 10.75C77.51 10.0833 77.91 9.45 77.91 8.85C77.91 7.38333 77.0933 6.65 75.46 6.65C73.3933 6.65 72.36 7.5 72.36 9.2ZM73.91 31.45C74.7433 31.45 75.4933 31.3833 76.16 31.25C74.2267 29.5167 72.3933 27.45 70.66 25.05C69.8933 26.0167 69.51 27.0167 69.51 28.05C69.51 30.3167 70.9767 31.45 73.91 31.45Z" fill="white"/>
</svg>
